<svg width="66" height="68" viewBox="0 0 66 68" fill="none" xmlns="http://www.w3.org/2000/svg">
<path d="M60.6536 32.2997C60.6536 28.4551 60.6038 24.61 60.6811 20.767C60.7071 19.4714 60.3086 18.7367 59.0945 18.1579C54.314 15.8783 49.5848 13.494 44.8379 11.1461C41.2958 9.39438 37.7491 7.65193 34.2179 5.87767C33.341 5.43744 32.5353 5.41846 31.6569 5.86176C29.7289 6.83407 27.7708 7.74839 25.848 8.73095C25.6047 8.85563 25.3785 9.24558 25.3712 9.51855C25.3655 9.74943 25.6368 10.0896 25.8745 10.2081C29.3875 11.9608 32.913 13.6889 36.4395 15.4144C40.9378 17.6146 45.4242 19.8393 49.9485 21.9851C51.5252 22.7331 52.222 23.8055 52.2002 25.5515C52.1369 30.6501 52.1909 35.7507 52.1629 40.8498C52.1587 41.5317 52.4021 41.8949 53.0018 42.1823C55.0917 43.1843 57.1619 44.2274 59.2398 45.2541C60.2318 45.7446 60.651 45.4886 60.6516 44.3824C60.6536 40.3546 60.6521 36.3274 60.6536 32.2997ZM46.864 39.3587H46.8593C46.8593 35.3828 46.8552 31.4069 46.864 27.4315C46.8655 26.8414 46.753 26.3812 46.1449 26.0862C43.1341 24.6249 40.1388 23.1328 37.1363 21.6556C31.2263 18.7485 25.3105 15.8531 19.4108 12.926C18.727 12.5868 18.1355 12.5519 17.4652 12.8957C16.2231 13.5324 14.9602 14.1297 13.7103 14.752C12.4599 15.3749 11.2028 15.986 9.97213 16.6459C9.24109 17.0379 9.26236 17.5869 9.97109 18.0025C10.1304 18.0958 10.2954 18.18 10.4609 18.2616C18.3757 22.1698 26.2916 26.0754 34.2039 29.9887C34.9837 30.3746 35.5061 30.9903 35.544 31.8805C35.5995 33.1847 35.6208 34.4911 35.6244 35.7964C35.6333 39.2746 35.626 42.7528 35.6213 46.231C35.6208 46.7421 35.641 47.2069 36.2092 47.483C39.3128 48.9909 42.403 50.5271 45.5072 52.0351C46.5314 52.5328 46.8619 52.3173 46.863 51.207C46.8661 47.2577 46.864 43.308 46.864 39.3587ZM65.9971 34.0724C65.9982 39.4865 66.0039 44.9006 65.9956 50.3147C65.9919 52.6636 64.3592 53.7016 62.2366 52.6672C59.3233 51.247 56.4386 49.7693 53.5419 48.3167C53.3536 48.2218 53.1705 48.1146 52.9759 48.0351C52.3201 47.7688 52.1172 47.936 52.1234 48.6128C52.1504 51.6457 52.1971 54.679 52.1499 57.7109C52.1234 59.4231 50.4243 60.3574 48.8252 59.578C45.7931 58.1013 42.7807 56.5847 39.7658 55.0731C38.7302 54.5544 37.719 53.9864 36.6787 53.4758C36.4214 53.3496 35.9954 53.226 35.8268 53.3465C35.64 53.48 35.6006 53.8956 35.5995 54.189C35.5814 58.0316 35.5383 61.8751 35.5964 65.7166C35.625 67.5858 33.7478 68.5509 32.0414 67.6715C30.144 66.694 28.2289 65.7505 26.3279 64.7807C21.8457 62.4949 17.3692 60.1994 12.887 57.913C9.08544 55.9741 5.28392 54.0346 1.47307 52.1136C0.554727 51.6513 -0.00821082 51.0787 9.05613e-05 49.9443C0.0441917 44.0073 0.0229194 38.0704 0.0307019 32.1334C0.0322584 30.9189 0.749809 29.94 1.87361 29.5762C2.8843 29.2488 4.18347 29.6444 4.78117 30.6403C5.09714 31.1668 5.23774 31.8682 5.24345 32.4921C5.28392 36.78 5.26732 41.0678 5.26836 45.3557C5.26887 46.0622 5.27095 46.7682 5.26109 47.4743C5.24916 48.2629 5.58744 48.7785 6.32886 49.1331C8.77673 50.3039 11.2013 51.5235 13.6356 52.7226C14.4403 53.1187 14.8482 52.9109 14.8642 51.9987C14.8948 50.2475 14.8419 48.4953 14.8513 46.7436C14.8642 44.209 14.8497 41.6728 14.9488 39.1407C15.0059 37.6814 16.152 36.8467 17.7355 36.9123C19.0985 36.9688 20.145 38.0186 20.1496 39.4008C20.1647 44.2911 20.1906 49.1818 20.1434 54.0715C20.1309 55.4061 20.5408 56.2434 21.8353 56.8186C24.2178 57.8776 26.5204 59.1126 28.865 60.2568C29.9427 60.7822 30.3297 60.5513 30.3297 59.3646C30.3302 51.2316 30.3131 43.0981 30.3173 34.9652C30.3178 34.2068 29.9779 33.7866 29.3086 33.4587C23.3462 30.5382 17.391 27.6029 11.443 24.6536C8.18577 23.0389 4.95342 21.3755 1.69513 19.7624C0.669908 19.2549 0.0981507 18.4873 0.0696146 17.3667C0.0405598 16.2256 0.527747 15.3339 1.57683 14.8105C4.9005 13.1512 8.2278 11.4991 11.5608 9.8577C17.5876 6.88897 23.6621 4.01157 29.6272 0.925854C31.8857 -0.242448 33.7997 -0.344039 36.0945 0.844273C42.3854 4.10136 48.7832 7.15526 55.1311 10.3041C58.2224 11.8372 61.2934 13.4103 64.382 14.9491C65.4632 15.4873 65.994 16.338 65.9945 17.5171C65.9987 23.0353 65.9966 28.5541 65.9971 34.0724Z" fill="white"/>
</svg>
