<svg id="Capa_1" enable-background="new 0 0 512 512" height="512" viewBox="0 0 512 512" width="512" xmlns="http://www.w3.org/2000/svg"><g><path d="m32 352h448v160h-448z" fill="#283d66"/><path d="m256 352h224v160h-224z" fill="#0a1f33"/><path d="m105.38 195.75h226v241h-226z" fill="#fff5f5"/><path d="m256 195.75h75.38v241h-75.38z" fill="#cfcfe6"/><path d="m331.375 316.247h75.25v120.5h-75.25z" fill="#ef4b2d"/><path d="m331.375 256h75.25v60.247h-75.25z" fill="#ffe14d"/><path d="m331.375 195.75h75.25v60.247h-75.25z" fill="#7ece50"/><path d="m256 135.5-165.62 15v301.25h331.24v-301.25zm-90.31 286.25h-45.31v-30.25h45.31zm0-60.25h-45.31v-30.25h45.31zm0-60.25h-45.31v-30.25h45.31zm0-60.25h-45.31v-30.25h45.31zm75.31 180.75h-45.31v-30.25h45.31zm0-60.25h-45.31v-30.25h45.31zm0-60.25h-45.31v-30.25h45.31zm0-60.25h-45.31v-30.25h45.31zm75.31 180.75h-45.31v-30.25h45.31zm0-60.25h-45.31v-30.25h45.31zm0-60.25h-45.31v-30.25h45.31zm0-60.25h-45.31v-30.25h45.31zm75.31 180.75h-45.31v-90.5h45.31zm0-120.5h-45.31v-30.25h45.31zm0-60.25h-45.31v-30.25h45.31z" fill="#4d628c"/><path d="m256 135.5v316.25h165.62v-301.25zm60.31 286.25h-45.31v-30.25h45.31zm0-60.25h-45.31v-30.25h45.31zm0-60.25h-45.31v-30.25h45.31zm0-60.25h-45.31v-30.25h45.31zm75.31 180.75h-45.31v-90.5h45.31zm0-120.5h-45.31v-30.25h45.31zm0-60.25h-45.31v-30.25h45.31z" fill="#283d66"/><path d="m105.38 15h301.24v120.5h-301.24z" fill="#7db3ff"/><path d="m256 15h150.62v120.5h-150.62z" fill="#8f94f2"/><path d="m90.38 0v150.5h331.24v-150.5zm301.24 120.5h-271.24v-90.5h271.24z" fill="#283d66"/><g fill="#0a1f33"><path d="m421.62 0v150.5h-165.62v-30h135.62v-90.5h-135.62v-30z"/><path d="m271.125 60.25h30.125v30h-30.125z"/><path d="m331.375 60.25h30.125v30h-30.125z"/></g></g></svg>