<?xml version="1.0"?>
<svg xmlns="http://www.w3.org/2000/svg" xmlns:xlink="http://www.w3.org/1999/xlink" xmlns:svgjs="http://svgjs.com/svgjs" version="1.1" width="512" height="512" x="0" y="0" viewBox="0 0 512.018 512.018" style="enable-background:new 0 0 512 512" xml:space="preserve" class=""><g><g xmlns="http://www.w3.org/2000/svg"><path d="m74.943 97.943 42.154 269.79h339.993l54.928-269.79z" fill="#313dbf" data-original="#b4b9f1" style="" class=""/><path d="m512.018 97.943h-218.538v269.79h163.61z" fill="#2c7aed" data-original="#6ba7ff" style="" class=""/><g><path d="m399.004 448.06h-284.358l-65.314-418.027h-49.332v-30h75.008l65.315 418.027h258.681z" fill="#4d628c" data-original="#4d628c" style="" class=""/></g><g fill="#283d66"><path d="m293.48 418.06h105.524v30h-105.524z" fill="#283d66" data-original="#283d66" style=""/><ellipse cx="399.004" cy="465.03" rx="46.971" ry="46.97" transform="matrix(.973 -.23 .23 .973 -96.168 104.112)" fill="#283d66" data-original="#283d66" style=""/><ellipse cx="187.671" cy="465.03" rx="46.971" ry="46.97" transform="matrix(.973 -.23 .23 .973 -101.821 55.558)" fill="#283d66" data-original="#283d66" style=""/></g><g><path d="m248.453 227.469h30v58.37h-30z" fill="#d0d5f4" data-original="#d0d5f4" style=""/></g><g><path d="m308.456 227.483h30v58.355h-30z" fill="#d0d5f4" data-original="#d0d5f4" style=""/></g><g><path d="m308.456 227.483h30v58.355h-30z" fill="#313dbf" data-original="#b4b9f1" style="" class=""/></g><g><path d="m368.46 183.701h30v102.138h-30z" fill="#d0d5f4" data-original="#d0d5f4" style=""/></g><g><path d="m368.46 183.701h30v102.138h-30z" fill="#313dbf" data-original="#b4b9f1" style="" class=""/></g><g><path d="m188.449 183.624h30v102.215h-30z" fill="#d0d5f4" data-original="#d0d5f4" style=""/></g><ellipse cx="293.48" cy="123.351" fill="#00cb75" rx="123.333" ry="123.333" transform="matrix(.707 -.707 .707 .707 -1.264 243.651)" data-original="#00cb75" style="" class=""/><path d="m416.814 123.351c0-68.006-55.327-123.333-123.333-123.333v246.667c68.006-.001 123.333-55.328 123.333-123.334z" fill="#00a78e" data-original="#00a78e" style="" class=""/><ellipse cx="399.004" cy="465.03" fill="#0a1f33" rx="46.971" ry="46.97" transform="matrix(.973 -.23 .23 .973 -96.168 104.112)" data-original="#0a1f33" style="" class=""/><path d="m341.814 108.351h-33.334v-33.334h-30v33.334h-33.334v30h33.334v33.335h30v-33.335h33.334z" fill="#bee75e" data-original="#bee75e" style=""/><path d="m308.48 108.351v-33.334h-15v96.669h15v-33.335h33.334v-30z" fill="#00cb75" data-original="#00cb75" style="" class=""/></g></g></svg>
