<svg height="512pt" viewBox="0 0 512 512" width="512pt" xmlns="http://www.w3.org/2000/svg"><path d="m77 120h375v242h-375zm0 0" fill="#32ddf9"/><path d="m257 120h195v242h-195zm0 0" fill="#00c0f1"/><path d="m377 422v30h-315v-422h-62v-30h92v422zm0 0" fill="#575f64"/><path d="m257 422h120v30h-120zm0 0" fill="#32393f"/><path d="m152 180h30v122h-30zm0 0" fill="#00c0f1"/><path d="m242 180h30v122h-30zm0 0" fill="#00c0f1"/><path d="m332 202.089844h30v99.910156h-30zm0 0" fill="#009ae4"/><path d="m257 180h15v122h-15zm0 0" fill="#009ae4"/><path d="m377 512c-24.8125 0-45-20.1875-45-45s20.1875-45 45-45 45 20.1875 45 45-20.1875 45-45 45zm0 0" fill="#32393f"/><path d="m167 512c-24.8125 0-45-20.1875-45-45s20.1875-45 45-45 45 20.1875 45 45-20.1875 45-45 45zm0 0" fill="#575f64"/><path d="m377 452c-8.277344 0-15 6.722656-15 15s6.722656 15 15 15 15-6.722656 15-15-6.722656-15-15-15zm0 0" fill="#d8d8fc"/><path d="m167 452c-8.277344 0-15 6.722656-15 15s6.722656 15 15 15 15-6.722656 15-15-6.722656-15-15-15zm0 0" fill="#f2f2fc"/><path d="m407 30c-57.898438 0-105 47.101562-105 105s47.101562 105 105 105 105-47.101562 105-105-47.101562-105-105-105zm0 0" fill="#ff637b"/><path d="m512 135c0 57.898438-47.101562 105-105 105v-210c57.898438 0 105 47.101562 105 105zm0 0" fill="#e63950"/><path d="m362 120h90v30h-90zm0 0" fill="#f2f2fc"/><path d="m407 120h45v30h-45zm0 0" fill="#d8d8fc"/></svg>