<?xml version="1.0"?>
<svg xmlns="http://www.w3.org/2000/svg" xmlns:xlink="http://www.w3.org/1999/xlink" xmlns:svgjs="http://svgjs.com/svgjs" version="1.1" width="512" height="512" x="0" y="0" viewBox="0 0 64 64" style="enable-background:new 0 0 512 512" xml:space="preserve" class=""><g transform="matrix(1.0699999999999998,0,0,1.0699999999999998,-7.240000133514364,-2.240000033378543)"><path xmlns="http://www.w3.org/2000/svg" d="m24.216 36.198-3.876 3.876 2.424 3.029 1.332-2.931c-.057-.383-.096-.773-.096-1.172 0-.941.172-1.84.471-2.68-.084-.043-.17-.081-.255-.122z" fill="#ffffff" data-original="#000000" style="" class=""/><circle xmlns="http://www.w3.org/2000/svg" cx="32" cy="15" r="2" fill="#ffffff" data-original="#000000" style="" class=""/><circle xmlns="http://www.w3.org/2000/svg" cx="32" cy="39" r="6" fill="#ffffff" data-original="#000000" style="" class=""/><circle xmlns="http://www.w3.org/2000/svg" cx="45" cy="27" r="6" fill="#ffffff" data-original="#000000" style="" class=""/><path xmlns="http://www.w3.org/2000/svg" d="m32 21c3.309 0 6-2.691 6-6s-2.691-6-6-6-6 2.691-6 6 2.691 6 6 6zm0-10c2.206 0 4 1.794 4 4s-1.794 4-4 4-4-1.794-4-4 1.794-4 4-4z" fill="#ffffff" data-original="#000000" style="" class=""/><path xmlns="http://www.w3.org/2000/svg" d="m43.1 35.156c-.06.279-.1.56-.1.844 0 1.626.916 3 2 3s2-1.374 2-3c0-.28-.039-.558-.097-.834-.621-.1-1.254-.166-1.903-.166-.64 0-1.274.056-1.9.156z" fill="#ffffff" data-original="#000000" style="" class=""/><path xmlns="http://www.w3.org/2000/svg" d="m15.848 35.434 3.152 3.152 3.161-3.161c-1.024-.279-2.086-.425-3.161-.425-1.092 0-2.146.159-3.152.434z" fill="#ffffff" data-original="#000000" style="" class=""/><path xmlns="http://www.w3.org/2000/svg" d="m32 47c-1.738 0-3.386.379-4.879 1.047l4.879 11.408 4.879-11.409c-1.493-.667-3.141-1.046-4.879-1.046z" fill="#ffffff" data-original="#000000" style="" class=""/><path xmlns="http://www.w3.org/2000/svg" d="m22.221 49c1.516-1.483 3.366-2.622 5.425-3.298-1.076-.701-1.971-1.653-2.606-2.773l-1.803 3.967-4.237-5.295-4.236 5.296-3.936-8.659c-2.349 2.192-3.828 5.304-3.828 8.762v2h3v-6h2v6z" fill="#ffffff" data-original="#000000" style="" class=""/><path xmlns="http://www.w3.org/2000/svg" d="m38.642 49.014-5.126 11.986h5.484v-6h2v6h3v-2c0-4.162-2.131-7.833-5.358-9.986z" fill="#ffffff" data-original="#000000" style="" class=""/><path xmlns="http://www.w3.org/2000/svg" d="m48.973 35.69c.006.104.027.206.027.31 0 2.757-1.794 5-4 5s-4-2.243-4-5c0-.108.022-.215.028-.323-.513.18-1.013.395-1.499.644.299.84.471 1.739.471 2.679 0 2.805-1.455 5.274-3.646 6.702 2.06.676 3.909 1.815 5.425 3.298h10.221v-6h2v6h3v-2c0-5.223-3.36-9.665-8.027-11.31z" fill="#ffffff" data-original="#000000" style="" class=""/><path xmlns="http://www.w3.org/2000/svg" d="m20 59v2h3v-6h2v6h5.484l-5.126-11.986c-3.227 2.153-5.358 5.824-5.358 9.986z" fill="#ffffff" data-original="#000000" style="" class=""/><circle xmlns="http://www.w3.org/2000/svg" cx="19" cy="27" r="6" fill="#ffffff" data-original="#000000" style="" class=""/><path xmlns="http://www.w3.org/2000/svg" d="m17.66 40.074-3.868-3.868c-.466.226-.918.474-1.348.756l2.792 6.142z" fill="#ffffff" data-original="#000000" style="" class=""/><path xmlns="http://www.w3.org/2000/svg" d="m21.843 17.548c.202.827.53 1.633.945 2.408 1.588.857 2.854 2.235 3.568 3.904l.228.138c.908.551 1.891.958 2.92 1.21l.595.146.399 1.697h3.004l.399-1.696.595-.146c1.031-.253 2.014-.66 2.92-1.21l.228-.138c.715-1.668 1.981-3.046 3.568-3.903.415-.776.743-1.581.945-2.408l.146-.595 1.697-.402v-3.056l-1.696-.399-.146-.595c-.252-1.028-.658-2.011-1.21-2.919l-.318-.523.918-1.483-2.125-2.125-1.483.918-.523-.318c-.906-.55-1.889-.958-2.92-1.21l-.595-.146-.4-1.697h-3.004l-.399 1.696-.595.146c-1.031.253-2.014.66-2.92 1.21l-.523.318-1.483-.918-2.125 2.125.918 1.483-.317.523c-.552.908-.958 1.891-1.21 2.919l-.146.595-1.698.401v3.056l1.696.399zm10.157-10.548c4.411 0 8 3.589 8 8s-3.589 8-8 8-8-3.589-8-8 3.589-8 8-8z" fill="#ffffff" data-original="#000000" style="" class=""/></g></svg>
